<svg width="32" height="32" viewBox="0 0 32 32" fill="none" xmlns="http://www.w3.org/2000/svg">
<path d="M19.0878 7.85291L21.2804 9.47504C21.5272 9.6576 21.4025 10.0616 21.0904 10.0635L20.4023 10.0677C20.4016 10.0677 20.401 10.0677 20.4003 10.0677C20.2233 10.0677 20.0788 9.92448 20.0777 9.74748C20.0745 9.22973 19.6525 8.81154 19.1345 8.81579C18.6168 8.81897 18.1996 9.24129 18.2028 9.75904C18.209 10.7594 18.8863 11.6009 19.8042 11.86V11.9053C19.8042 12.4231 20.224 12.8428 20.7416 12.8428C21.2593 12.8428 21.6791 12.4231 21.6791 11.9053V11.858C22.0443 11.7568 22.3787 11.562 22.6522 11.285C23.0648 10.8672 23.29 10.3137 23.2859 9.72498V9.7191C23.2812 9.03147 22.9483 8.37673 22.3955 7.96772L20.2029 6.34566C19.9539 6.16141 20.0847 5.76441 20.3949 5.76441H21.084C21.262 5.76441 21.4067 5.90897 21.4067 6.08666C21.4067 6.60441 21.8265 7.02416 22.3441 7.02416C22.8618 7.02416 23.2816 6.60441 23.2816 6.08666C23.2816 5.08135 22.6025 4.2321 21.679 3.97197V3.92685C21.679 3.4091 21.2593 2.98935 20.7416 2.98935C20.2239 2.98935 19.8041 3.4091 19.8041 3.92685V3.97072C18.8785 4.22941 18.1973 5.07972 18.1973 6.08666C18.1973 6.7801 18.5302 7.44035 19.0878 7.85291Z" fill="#464646"/>
<path d="M20.7423 15.8322C25.1085 15.8322 28.6605 12.2811 28.6605 7.91606C28.6605 3.55106 25.1084 0 20.7423 0C16.3763 0 12.8242 3.55113 12.8242 7.91612C12.8242 12.2811 16.3763 15.8322 20.7423 15.8322ZM20.7423 1.875C24.0746 1.875 26.7855 4.58506 26.7855 7.91612C26.7855 11.2472 24.0746 13.9572 20.7423 13.9572C17.4102 13.9572 14.6992 11.2472 14.6992 7.91612C14.6992 4.58506 17.4102 1.875 20.7423 1.875Z" fill="#464646"/>
<path d="M31.3553 17.9491C30.3414 16.6437 28.5109 16.3982 27.1933 17.3123L23.6263 19.6986C23.1306 18.7757 22.156 18.1466 21.0369 18.1466H18.4925C17.2081 16.9419 15.4934 16.258 13.7248 16.258C12.3974 16.258 11.1061 16.633 9.99063 17.3425C8.98557 17.9818 8.16344 18.8649 7.5985 19.9076L7.12088 20.1996L6.99713 19.8377C6.82963 19.3479 6.29688 19.0864 5.807 19.2538L0.634567 21.0212C0.144879 21.1885 -0.116871 21.7217 0.0506291 22.2117L3.18019 31.3655C3.34775 31.8556 3.88069 32.1166 4.37032 31.9494L9.54275 30.1821C10.0047 30.0242 10.3073 29.52 10.1163 28.9613L18.3239 28.7073C20.5591 28.7043 22.7026 28.0178 24.5233 26.7219L30.7128 22.3193C32.1318 21.3092 32.4248 19.325 31.3553 17.9491ZM4.65107 29.872L2.12807 22.4924L5.52625 21.3312C5.89232 22.402 7.67144 27.6058 8.04925 28.711L4.65107 29.872ZM29.6259 20.7915L23.4364 25.1941C21.9307 26.2658 20.1576 26.8322 18.309 26.8322C18.2994 26.8322 18.2896 26.8323 18.28 26.8327L9.48169 27.105L7.74232 22.0173L8.7995 21.3708C8.79975 21.3707 8.79994 21.3705 8.80019 21.3703C8.95582 21.275 9.0775 21.1352 9.15175 20.9839C10.0146 19.2254 11.7669 18.1329 13.7248 18.1329C15.1397 18.1329 16.4538 18.6993 17.4251 19.7278C17.604 19.9173 17.861 20.0214 18.1067 20.0214H21.0369C21.6227 20.0214 22.0992 20.4976 22.0992 21.083C22.0992 21.6624 21.6306 22.1447 21.0369 22.1447H15.7476C15.2299 22.1447 14.8102 22.5645 14.8102 23.0822C14.8102 23.6 15.2299 24.0197 15.7476 24.0197H21.0369C21.8221 24.0197 22.5598 23.714 23.1135 23.1595C23.5009 22.7722 23.7663 22.2959 23.8916 21.7769L28.2429 18.8658C28.2481 18.8623 28.2533 18.8587 28.2585 18.8551C28.7716 18.4967 29.4824 18.5942 29.8748 19.0994C30.2886 19.6319 30.1755 20.4003 29.6259 20.7915Z" fill="#464646"/>
</svg>
