<svg width="32" height="32" viewBox="0 0 32 32" fill="none" xmlns="http://www.w3.org/2000/svg">
<path d="M31.8664 25.504L26.0624 15.428C26.6624 14.07 27.0004 12.574 27.0004 11C27.0004 4.934 22.0664 0 16.0004 0C9.9344 0 5.0004 4.934 5.0004 11C5.0004 12.574 5.3384 14.07 5.9384 15.426L0.134404 25.5C-0.067596 25.852 -0.039596 26.29 0.208404 26.61C0.456404 26.93 0.870404 27.074 1.2604 26.966L7.1324 25.386L8.6944 31.256C8.7984 31.648 9.1284 31.938 9.5284 31.99C9.5744 31.998 9.6184 32 9.6604 32C10.0144 32 10.3464 31.812 10.5264 31.5L16.0004 22.024L21.4744 31.5C21.6544 31.812 21.9864 32 22.3404 32C22.3824 32 22.4284 31.998 22.4724 31.992C22.8724 31.94 23.2024 31.65 23.3064 31.258L24.8684 25.388L30.7404 26.968C31.1304 27.076 31.5464 26.932 31.7924 26.612C32.0384 26.292 32.0684 25.854 31.8664 25.504ZM10.0044 28.406L8.8064 23.904C8.7384 23.648 8.5704 23.428 8.3404 23.294C8.1104 23.162 7.8344 23.128 7.5804 23.194L3.0724 24.406L7.0924 17.428C8.6864 19.632 11.0684 21.228 13.8304 21.784L10.0044 28.406ZM7.0004 11C7.0004 6.038 11.0384 2 16.0004 2C20.9624 2 25.0004 6.038 25.0004 11C25.0004 15.962 20.9624 20 16.0004 20C11.0384 20 7.0004 15.962 7.0004 11ZM24.4204 23.196C24.1644 23.128 23.8904 23.164 23.6604 23.296C23.4304 23.428 23.2624 23.648 23.1944 23.906L21.9964 28.408L18.1704 21.786C20.9304 21.232 23.3144 19.634 24.9084 17.43L28.9284 24.408L24.4204 23.196Z" fill="#464646"/>
<path d="M21.9491 8.50418C21.8431 8.18218 21.5811 7.93818 21.2531 7.85218L18.4171 7.11018L16.8611 4.49018C16.5011 3.88218 15.5011 3.88218 15.1431 4.49018L13.5871 7.11018L10.7491 7.85218C10.4191 7.93818 10.1591 8.18218 10.0511 8.50418C9.94314 8.82618 10.0071 9.17818 10.2191 9.44418L12.1211 11.8242L11.9131 14.9342C11.8911 15.2802 12.0491 15.6142 12.3331 15.8162C12.6171 16.0182 12.9851 16.0562 13.3031 15.9202L16.0011 14.7742L18.6991 15.9202C18.8251 15.9742 18.9591 16.0002 19.0911 16.0002C19.2951 16.0002 19.4991 15.9382 19.6711 15.8162C19.9551 15.6142 20.1131 15.2802 20.0891 14.9342L19.8811 11.8242L21.7811 9.44418C21.9931 9.18018 22.0551 8.82618 21.9491 8.50418ZM18.0771 10.8802C17.9211 11.0762 17.8431 11.3222 17.8611 11.5702L17.9871 13.4442L16.3931 12.7662C16.2671 12.7122 16.1331 12.6862 16.0011 12.6862C15.8691 12.6862 15.7351 12.7122 15.6091 12.7662L14.0171 13.4442L14.1411 11.5702C14.1591 11.3222 14.0811 11.0762 13.9251 10.8802L12.7431 9.39818L14.4891 8.94018C14.7431 8.87418 14.9611 8.70818 15.0951 8.48418L16.0011 6.95818L16.9071 8.48418C17.0411 8.70818 17.2591 8.87418 17.5131 8.94018L19.2591 9.39818L18.0771 10.8802Z" fill="#464646"/>
</svg>
