<svg width="38" height="33" viewBox="0 0 38 33" fill="none" xmlns="http://www.w3.org/2000/svg">
<path d="M33.3186 18.8506L35.7942 20.4208C36.2621 20.7176 36.2603 21.1992 35.7901 21.4946L19.6657 31.6249C19.1975 31.919 18.4421 31.917 17.9778 31.6204L2.12583 21.4946C1.66226 21.1985 1.66359 20.7203 2.12881 20.4252L4.61142 18.8506" stroke="#464646" stroke-width="2"/>
<path d="M4.81762 14.0161L2.04922 15.9312C1.62138 16.2272 1.63202 16.6835 2.07348 16.9713L17.9691 27.3347C18.4352 27.6387 19.204 27.6407 19.6741 27.3392L35.807 16.9941C36.2691 16.6979 36.267 16.2205 35.8024 15.9258L33.3182 14.3502" stroke="#464646" stroke-width="2"/>
<path d="M2.63136 13.4615C2.17529 13.1749 2.15817 12.7108 2.59259 12.411L17.9828 1.78774C18.4395 1.47251 19.217 1.45979 19.6987 1.75966L35.9464 11.874C36.4233 12.1709 36.4234 12.6581 35.9467 12.9551L19.6501 23.1063C19.1841 23.3966 18.4368 23.3955 17.9727 23.1039L2.63136 13.4615Z" stroke="#464646" stroke-width="2"/>
</svg>
