<svg width="16" height="22" viewBox="0 0 16 22" fill="none" xmlns="http://www.w3.org/2000/svg">
<path d="M11.7071 5.70711C12.0976 5.31658 12.0976 4.68342 11.7071 4.29289C11.3166 3.90237 10.6834 3.90237 10.2929 4.29289L11.7071 5.70711ZM5 11L4.29289 10.2929L3.58579 11L4.29289 11.7071L5 11ZM10.2929 17.7071C10.6834 18.0976 11.3166 18.0976 11.7071 17.7071C12.0976 17.3166 12.0976 16.6834 11.7071 16.2929L10.2929 17.7071ZM10.2929 4.29289L4.29289 10.2929L5.70711 11.7071L11.7071 5.70711L10.2929 4.29289ZM4.29289 11.7071L10.2929 17.7071L11.7071 16.2929L5.70711 10.2929L4.29289 11.7071Z" fill="#111111"/>
</svg>
