<svg width="46" height="46" viewBox="0 0 46 46" fill="none" xmlns="http://www.w3.org/2000/svg">
<g filter="url(#filter0_d_1222_1017)">
<circle cx="23" cy="19" r="16" fill="#111111"/>
</g>
<path d="M22.7071 25.7071C22.3166 26.0976 21.6834 26.0976 21.2929 25.7071C20.9024 25.3166 20.9024 24.6834 21.2929 24.2929L22.7071 25.7071ZM21.2929 13.7071C20.9024 13.3166 20.9024 12.6834 21.2929 12.2929C21.6834 11.9024 22.3166 11.9024 22.7071 12.2929L21.2929 13.7071ZM28 19L28.7071 18.2929L29.4142 19L28.7071 19.7071L28 19ZM28.7071 19.7071L22.7071 25.7071L21.2929 24.2929L27.2929 18.2929L28.7071 19.7071ZM22.7071 12.2929L28.7071 18.2929L27.2929 19.7071L21.2929 13.7071L22.7071 12.2929Z" fill="white"/>
<defs>
<filter id="filter0_d_1222_1017" x="0" y="0" width="46" height="46" filterUnits="userSpaceOnUse" color-interpolation-filters="sRGB">
<feFlood flood-opacity="0" result="BackgroundImageFix"/>
<feColorMatrix in="SourceAlpha" type="matrix" values="0 0 0 0 0 0 0 0 0 0 0 0 0 0 0 0 0 0 127 0" result="hardAlpha"/>
<feOffset dy="4"/>
<feGaussianBlur stdDeviation="3.5"/>
<feColorMatrix type="matrix" values="0 0 0 0 0 0 0 0 0 0 0 0 0 0 0 0 0 0 0.09 0"/>
<feBlend mode="normal" in2="BackgroundImageFix" result="effect1_dropShadow_1222_1017"/>
<feBlend mode="normal" in="SourceGraphic" in2="effect1_dropShadow_1222_1017" result="shape"/>
</filter>
</defs>
</svg>
