<svg width="15" height="16" viewBox="0 0 15 16" fill="none" xmlns="http://www.w3.org/2000/svg">
<path fill-rule="evenodd" clip-rule="evenodd" d="M0 3.91461C0 1.82146 1.67893 0.124634 3.75 0.124634H11.25C13.3211 0.124634 15 1.82146 15 3.91461V11.4946C15 13.5877 13.3211 15.2845 11.25 15.2845H3.75C1.67893 15.2845 0 13.5877 0 11.4946V3.91461ZM7.5 10.0417C8.77716 10.0417 9.8125 8.99536 9.8125 7.70459C9.8125 6.41382 8.77716 5.36744 7.5 5.36744C6.22284 5.36744 5.1875 6.41382 5.1875 7.70459C5.1875 8.99536 6.22284 10.0417 7.5 10.0417ZM7.5 11.6209C9.6401 11.6209 11.375 9.86751 11.375 7.70459C11.375 5.54167 9.6401 3.78828 7.5 3.78828C5.3599 3.78828 3.625 5.54167 3.625 7.70459C3.625 9.86751 5.3599 11.6209 7.5 11.6209ZM11.5625 4.67261C12.1493 4.67261 12.625 4.19184 12.625 3.59878C12.625 3.00572 12.1493 2.52495 11.5625 2.52495C10.9757 2.52495 10.5 3.00572 10.5 3.59878C10.5 4.19184 10.9757 4.67261 11.5625 4.67261Z" fill="#B9B9B9"/>
</svg>
