<svg width="18" height="18" viewBox="0 0 18 18" fill="none" xmlns="http://www.w3.org/2000/svg">
<path d="M1 3C0.447715 3 0 3.44772 0 4C0 4.55228 0.447715 5 1 5V3ZM17 5C17.5523 5 18 4.55228 18 4C18 3.44772 17.5523 3 17 3V5ZM1 16C0.447715 16 0 16.4477 0 17C0 17.5523 0.447715 18 1 18V16ZM17 18C17.5523 18 18 17.5523 18 17C18 16.4477 17.5523 16 17 16V18ZM1 7.33333C0.447715 7.33333 0 7.78105 0 8.33333C0 8.88562 0.447715 9.33333 1 9.33333V7.33333ZM17 9.33333C17.5523 9.33333 18 8.88562 18 8.33333C18 7.78105 17.5523 7.33333 17 7.33333V9.33333ZM1 11.6667C0.447715 11.6667 0 12.1144 0 12.6667C0 13.219 0.447715 13.6667 1 13.6667V11.6667ZM17 13.6667C17.5523 13.6667 18 13.219 18 12.6667C18 12.1144 17.5523 11.6667 17 11.6667V13.6667ZM1 5H17V3H1V5ZM1 18H17V16H1V18ZM1 9.33333H17V7.33333H1V9.33333ZM1 13.6667H17V11.6667H1V13.6667Z" fill="#BCBCBC"/>
</svg>
