<svg width="22" height="21" viewBox="0 0 22 21" fill="none" xmlns="http://www.w3.org/2000/svg">
<path d="M21.4649 19.3339L16.6945 14.7709C18.042 13.2085 18.7743 11.2647 18.7743 9.2174C18.7743 6.87994 17.8254 4.68754 16.0966 3.03391C14.3721 1.38029 12.0757 0.472656 9.63637 0.472656C7.197 0.472656 4.90061 1.38029 3.17182 3.03391C1.44303 4.68339 0.494141 6.87994 0.494141 9.2174C0.494141 11.5507 1.44303 13.7473 3.17182 15.4009C4.89628 17.0504 7.19266 17.9621 9.63637 17.9621C11.7811 17.9621 13.8132 17.2617 15.4423 15.9728L20.2128 20.5317C20.5594 20.8632 21.1183 20.8632 21.4649 20.5317C21.8116 20.2001 21.8116 19.6655 21.4649 19.3339ZM4.424 14.199C3.02883 12.8686 2.26193 11.099 2.26193 9.2174C2.26193 7.33583 3.02883 5.56201 4.41967 4.23165C5.8105 2.90129 7.66061 2.16773 9.63204 2.16773C11.5991 2.16773 13.4536 2.90129 14.8444 4.23165C16.2352 5.56201 17.0021 7.33168 17.0021 9.2174C17.0021 11.099 16.2352 12.8728 14.8444 14.2031C13.4536 15.5335 11.5991 16.2671 9.63204 16.2671C7.66494 16.2671 5.81483 15.5335 4.424 14.199V14.199Z" fill="#8D8D8D"/>
</svg>
