<svg width="22" height="16" viewBox="0 0 22 16" fill="none" xmlns="http://www.w3.org/2000/svg">
<path d="M17.7071 5.70711C18.0976 5.31658 18.0976 4.68342 17.7071 4.29289C17.3166 3.90237 16.6834 3.90237 16.2929 4.29289L17.7071 5.70711ZM5.70711 4.29289C5.31658 3.90237 4.68342 3.90237 4.29289 4.29289C3.90237 4.68342 3.90237 5.31658 4.29289 5.70711L5.70711 4.29289ZM11 11L10.2929 11.7071L11 12.4142L11.7071 11.7071L11 11ZM11.7071 11.7071L17.7071 5.70711L16.2929 4.29289L10.2929 10.2929L11.7071 11.7071ZM4.29289 5.70711L10.2929 11.7071L11.7071 10.2929L5.70711 4.29289L4.29289 5.70711Z" fill="#8D8D8D"/>
</svg>
