<svg width="26" height="26" viewBox="0 0 26 26" fill="none" xmlns="http://www.w3.org/2000/svg">
<path d="M25.7702 8.71908C25.5858 8.49201 25.3152 8.3611 25.0299 8.3611H22.3369L17.0482 0.84578C16.731 0.394721 16.124 0.298565 15.6922 0.628833C15.2602 0.95979 15.1674 1.59341 15.4843 2.04378L19.93 8.36116H5.81138L10.2571 2.04378C10.5743 1.59304 10.4809 0.95979 10.0491 0.628833C9.6174 0.298194 9.0101 0.395357 8.69287 0.84578L3.40409 8.36116H0.970131C0.684892 8.36116 0.414226 8.49207 0.22989 8.71913C0.0455532 8.9462 -0.0336659 9.24611 0.0132054 9.53961L2.43858 24.7215C2.51653 25.2093 2.92141 25.5673 3.39545 25.5673H22.6045C23.0789 25.5673 23.4835 25.2097 23.5614 24.7215L25.9867 9.53961C26.0337 9.24643 25.9545 8.94615 25.7702 8.71908ZM21.7829 23.5431H4.21725L2.11525 10.3854H23.8848L21.7829 23.5431Z" fill="white"/>
<path d="M13.0004 12.7471C12.4646 12.7471 12.0303 13.2001 12.0303 13.7592V20.4055C12.0303 20.9646 12.4646 21.4176 13.0004 21.4176C13.5362 21.4176 13.9705 20.9649 13.9705 20.4055V13.7592C13.9705 13.2001 13.5362 12.7471 13.0004 12.7471Z" fill="white"/>
<path d="M18.0121 12.7471C17.4763 12.7471 17.042 13.2001 17.042 13.7592V20.4055C17.042 20.9646 17.4763 21.4176 18.0121 21.4176C18.548 21.4176 18.9823 20.9649 18.9823 20.4055V13.7592C18.9823 13.2001 18.548 12.7471 18.0121 12.7471Z" fill="white"/>
<path d="M7.98771 12.7471C7.45186 12.7471 7.01758 13.2001 7.01758 13.7592V20.4055C7.01758 20.9646 7.45186 21.4176 7.98771 21.4176C8.52355 21.4176 8.95783 20.9649 8.95783 20.4055V13.7592C8.95783 13.2001 8.52355 12.7471 7.98771 12.7471Z" fill="white"/>
</svg>
