<svg width="25" height="22" viewBox="0 0 25 22" fill="none" xmlns="http://www.w3.org/2000/svg">
<path d="M12.4995 0C5.59109 0 -0.000488281 3.59063 -0.000488281 10.5C-0.000488281 12.6925 0.571335 13.8339 1.65719 15.7225L0.0466232 20.724C-0.0657196 21.0726 0.0265961 21.4549 0.285614 21.7139C0.542152 21.9704 0.923431 22.0662 1.27553 21.9529L6.27698 19.3423C8.16563 20.4282 10.307 21 12.4995 21C19.4079 21 24.9995 17.4094 24.9995 10.5C24.9995 3.59158 19.4089 0 12.4995 0ZM12.4995 19.0469C10.5191 19.0469 8.58868 18.4943 6.91689 17.4489C6.67638 17.2986 6.37769 17.258 6.09978 17.3474L2.48936 19.5101L3.65208 15.8997C3.7402 15.6258 3.70301 15.3268 3.55042 15.0826C2.5052 13.4108 1.95264 12.4804 1.95264 10.5C1.95264 4.68449 6.68401 1.95312 12.4995 1.95312C18.315 1.95312 23.0464 4.68449 23.0464 10.5C23.0464 16.3155 18.315 19.0469 12.4995 19.0469ZM13.7202 9.5C13.7202 10.1741 13.1738 10.7207 12.4995 10.7207C11.8253 10.7207 11.2788 10.1741 11.2788 9.5C11.2788 8.82575 11.8253 8.2793 12.4995 8.2793C13.1738 8.2793 13.7202 8.82575 13.7202 9.5ZM18.603 9.5C18.603 10.1741 18.0566 10.7207 17.3823 10.7207C16.7081 10.7207 16.1616 10.1741 16.1616 9.5C16.1616 8.82575 16.7081 8.2793 17.3823 8.2793C18.0566 8.2793 18.603 8.82575 18.603 9.5ZM8.8374 9.5C8.8374 10.1741 8.29095 10.7207 7.6167 10.7207C6.94264 10.7207 6.396 10.1741 6.396 9.5C6.396 8.82575 6.94264 8.2793 7.6167 8.2793C8.29095 8.2793 8.8374 8.82575 8.8374 9.5Z" fill="#BCBCBC"/>
</svg>
