<svg width="26" height="26" viewBox="0 0 26 26" fill="none" xmlns="http://www.w3.org/2000/svg">
<path d="M19.7061 25.6169L12.9974 21.906L6.2887 25.6169C5.93479 25.8147 5.49761 25.7887 5.16451 25.5597C4.83142 25.3255 4.65967 24.9247 4.72733 24.5239L6.02327 16.5868L0.548053 10.9761C0.27221 10.6899 0.178528 10.2787 0.303438 9.90396C0.428348 9.52923 0.756236 9.25338 1.15178 9.19613L8.6672 8.04589L12.0398 0.858216C12.2115 0.488683 12.5862 0.249268 12.9974 0.249268C13.4086 0.249268 13.7833 0.488683 13.9603 0.858216L17.3328 8.04589L24.8482 9.19613C25.2438 9.25858 25.5665 9.52923 25.6966 9.90396C25.8215 10.2787 25.7278 10.6951 25.452 10.9761L19.9767 16.5868L21.2727 24.5239C21.3403 24.9247 21.1686 25.3255 20.8355 25.5597C20.6481 25.6846 20.2318 25.8876 19.7061 25.6169ZM3.50425 10.9761L7.91253 15.4938C8.14674 15.7332 8.25083 16.0715 8.19878 16.3994L7.16828 22.7075L12.4769 19.7721C12.7996 19.5951 13.1848 19.5951 13.5075 19.7721L18.8161 22.7075L17.7856 16.3994C17.7336 16.0663 17.8377 15.7332 18.0719 15.4938L22.4801 10.9761L16.4376 10.0549C16.0889 10.0029 15.7871 9.77905 15.6361 9.45636L12.9974 3.80407L10.3483 9.45116C10.1973 9.76864 9.89548 9.99765 9.54677 10.0497L3.50425 10.9761Z" fill="white"/>
</svg>
