<svg width="11" height="21" viewBox="0 0 11 21" fill="none" xmlns="http://www.w3.org/2000/svg">
<path d="M7.91669 3.44016H10.4167C10.6468 3.44016 10.8334 3.2516 10.8334 3.01903V0.492373C10.8334 0.259841 10.6468 0.0712891 10.4167 0.0712891H7.91669C5.38653 0.0740921 3.3361 2.14635 3.33336 4.70349V7.65127H0.41668C0.186563 7.65127 0 7.83982 0 8.07239V10.5991C0 10.8316 0.186563 11.0202 0.41668 11.0202H3.33336V19.8635C3.33336 20.0961 3.51993 20.2846 3.75004 20.2846H6.25005C6.48017 20.2846 6.66673 20.0961 6.66673 19.8635V11.0202H9.58341C9.76267 11.0201 9.92177 10.904 9.97841 10.7321L10.8117 8.20548C10.8845 7.98483 10.7664 7.74637 10.5481 7.67286C10.5058 7.65861 10.4614 7.65131 10.4167 7.65127H6.66673V4.70349C6.66669 4.00577 7.22634 3.44016 7.91669 3.44016Z" fill="#B9B9B9"/>
</svg>
