<svg width="23" height="22" viewBox="0 0 23 22" fill="none" xmlns="http://www.w3.org/2000/svg">
<path d="M12.7071 17.7071C12.3166 18.0976 11.6834 18.0976 11.2929 17.7071C10.9024 17.3166 10.9024 16.6834 11.2929 16.2929L12.7071 17.7071ZM11.2929 5.70711C10.9024 5.31658 10.9024 4.68342 11.2929 4.29289C11.6834 3.90237 12.3166 3.90237 12.7071 4.29289L11.2929 5.70711ZM18 11L18.7071 10.2929L19.4142 11L18.7071 11.7071L18 11ZM18.7071 11.7071L12.7071 17.7071L11.2929 16.2929L17.2929 10.2929L18.7071 11.7071ZM12.7071 4.29289L18.7071 10.2929L17.2929 11.7071L11.2929 5.70711L12.7071 4.29289Z" fill="#111111"/>
<path d="M5.70711 17.7071C5.31658 18.0976 4.68342 18.0976 4.29289 17.7071C3.90237 17.3166 3.90237 16.6834 4.29289 16.2929L5.70711 17.7071ZM4.29289 5.70711C3.90237 5.31658 3.90237 4.68342 4.29289 4.29289C4.68342 3.90237 5.31658 3.90237 5.70711 4.29289L4.29289 5.70711ZM11 11L11.7071 10.2929L12.4142 11L11.7071 11.7071L11 11ZM11.7071 11.7071L5.70711 17.7071L4.29289 16.2929L10.2929 10.2929L11.7071 11.7071ZM5.70711 4.29289L11.7071 10.2929L10.2929 11.7071L4.29289 5.70711L5.70711 4.29289Z" fill="#111111"/>
</svg>
