<svg width="17" height="20" viewBox="0 0 17 20" fill="none" xmlns="http://www.w3.org/2000/svg">
<path d="M8.14286 1L8.81846 0.262735C8.42264 -0.0999768 7.81105 -0.0854182 7.43294 0.295716L8.14286 1ZM1 8.2L0.290082 7.49572C0.104266 7.68302 0 7.93616 0 8.2H1ZM1 19H0C0 19.5523 0.447715 20 1 20L1 19ZM6 19V20C6.55229 20 7 19.5523 7 19H6ZM6 13.24V12.24C5.44772 12.24 5 12.6877 5 13.24H6ZM11 13.24H12C12 12.6877 11.5523 12.24 11 12.24V13.24ZM11 19H10C10 19.5523 10.4477 20 11 20V19ZM16 19V20C16.5523 20 17 19.5523 17 19H16ZM16 8.2H17C17 7.91964 16.8823 7.65215 16.6756 7.46273L16 8.2ZM7.43294 0.295716L0.290082 7.49572L1.70992 8.90428L8.85278 1.70428L7.43294 0.295716ZM0 8.2V19H2V8.2H0ZM1 20H6V18H1V20ZM7 19V13.24H5V19H7ZM6 14.24H11V12.24H6V14.24ZM10 13.24V19H12V13.24H10ZM11 20H16V18H11V20ZM17 19V8.2H15V19H17ZM16.6756 7.46273L8.81846 0.262735L7.46725 1.73727L15.3244 8.93727L16.6756 7.46273Z" fill="#BCBCBC"/>
</svg>
