<svg width="49" height="44" viewBox="0 0 49 44" fill="none" xmlns="http://www.w3.org/2000/svg">
<path d="M42 22L41.1 23.2L42.1408 23.9806L43.0607 23.0607L42 22ZM36.6451 37.7408C37.2515 37.1764 37.2855 36.2273 36.7211 35.6209C36.1567 35.0145 35.2076 34.9805 34.6012 35.5449L36.6451 37.7408ZM48.0607 18.0607C48.6464 17.4749 48.6464 16.5251 48.0607 15.9393C47.4749 15.3536 46.5251 15.3536 45.9393 15.9393L48.0607 18.0607ZM37.1857 16.5143C36.523 16.0172 35.5828 16.1515 35.0857 16.8143C34.5887 17.477 34.723 18.4172 35.3857 18.9143L37.1857 16.5143ZM22 40.5C11.7827 40.5 3.5 32.2173 3.5 22H0.5C0.5 33.8741 10.1259 43.5 22 43.5V40.5ZM3.5 22C3.5 11.7827 11.7827 3.5 22 3.5V0.5C10.1259 0.5 0.5 10.1259 0.5 22H3.5ZM22 3.5C32.2173 3.5 40.5 11.7827 40.5 22H43.5C43.5 10.1259 33.8741 0.5 22 0.5V3.5ZM34.6012 35.5449C31.2967 38.6206 26.8695 40.5 22 40.5V43.5C27.6575 43.5 32.8074 41.3129 36.6451 37.7408L34.6012 35.5449ZM43.0607 23.0607L48.0607 18.0607L45.9393 15.9393L40.9393 20.9393L43.0607 23.0607ZM42.9 20.8L37.1857 16.5143L35.3857 18.9143L41.1 23.2L42.9 20.8Z" fill="black"/>
</svg>
