<svg width="23" height="22" viewBox="0 0 23 22" fill="none" xmlns="http://www.w3.org/2000/svg">
<path d="M10.2929 17.7071C10.6834 18.0976 11.3166 18.0976 11.7071 17.7071C12.0976 17.3166 12.0976 16.6834 11.7071 16.2929L10.2929 17.7071ZM11.7071 5.70711C12.0976 5.31658 12.0976 4.68342 11.7071 4.29289C11.3166 3.90237 10.6834 3.90237 10.2929 4.29289L11.7071 5.70711ZM5 11L4.29289 10.2929L3.58579 11L4.29289 11.7071L5 11ZM4.29289 11.7071L10.2929 17.7071L11.7071 16.2929L5.70711 10.2929L4.29289 11.7071ZM10.2929 4.29289L4.29289 10.2929L5.70711 11.7071L11.7071 5.70711L10.2929 4.29289Z" fill="#111111"/>
<path d="M17.2929 17.7071C17.6834 18.0976 18.3166 18.0976 18.7071 17.7071C19.0976 17.3166 19.0976 16.6834 18.7071 16.2929L17.2929 17.7071ZM18.7071 5.70711C19.0976 5.31658 19.0976 4.68342 18.7071 4.29289C18.3166 3.90237 17.6834 3.90237 17.2929 4.29289L18.7071 5.70711ZM12 11L11.2929 10.2929L10.5858 11L11.2929 11.7071L12 11ZM11.2929 11.7071L17.2929 17.7071L18.7071 16.2929L12.7071 10.2929L11.2929 11.7071ZM17.2929 4.29289L11.2929 10.2929L12.7071 11.7071L18.7071 5.70711L17.2929 4.29289Z" fill="#111111"/>
</svg>
