<svg width="26" height="26" viewBox="0 0 26 26" fill="none" xmlns="http://www.w3.org/2000/svg">
<path d="M22.3928 4.00045C19.9388 1.43903 16.5435 -0.00650486 12.9963 2.2007e-05C5.82769 -0.00900683 0.00903913 5.79496 1.02913e-05 12.9636C-0.00444974 16.5082 1.44093 19.9004 4.00044 22.3526C4.00789 22.36 4.01066 22.3712 4.01806 22.3777C4.09323 22.4501 4.17492 22.5114 4.25107 22.581C4.45993 22.7667 4.66879 22.9588 4.8888 23.138C5.00666 23.2308 5.1292 23.3236 5.2499 23.409C5.45783 23.564 5.66577 23.719 5.88295 23.862C6.03057 23.9549 6.1828 24.0477 6.33406 24.1405C6.53455 24.2612 6.73416 24.3828 6.94117 24.4932C7.11664 24.5861 7.29574 24.6659 7.47398 24.7503C7.66892 24.8432 7.86108 24.936 8.06064 25.0195C8.2602 25.1031 8.46074 25.1681 8.66307 25.2405C8.8654 25.3128 9.03994 25.3797 9.23395 25.4391C9.45304 25.505 9.67767 25.556 9.90045 25.6108C10.0861 25.6563 10.2662 25.7083 10.4574 25.7454C10.7136 25.7965 10.9735 25.829 11.2335 25.8643C11.3941 25.8866 11.5509 25.9181 11.7133 25.9339C12.1385 25.9757 12.5673 25.9989 12.9999 25.9989C13.4325 25.9989 13.8613 25.9757 14.2865 25.9339C14.4489 25.9181 14.6058 25.8866 14.7663 25.8643C15.0263 25.829 15.2862 25.7965 15.5424 25.7454C15.728 25.7083 15.9137 25.6526 16.0993 25.6108C16.3221 25.556 16.5468 25.505 16.7658 25.4391C16.9599 25.3797 17.1473 25.3073 17.3367 25.2405C17.5261 25.1736 17.7415 25.1012 17.9392 25.0195C18.1369 24.9378 18.3309 24.8422 18.5258 24.7503C18.7041 24.6659 18.8832 24.586 19.0586 24.4932C19.2656 24.3828 19.4652 24.2612 19.6657 24.1405C19.8171 24.0477 19.9693 23.9632 20.1169 23.862C20.3341 23.7191 20.542 23.5641 20.7499 23.409C20.8706 23.3162 20.9931 23.2326 21.111 23.138C21.331 22.9616 21.5399 22.7741 21.7487 22.581C21.8248 22.5114 21.9065 22.4502 21.9817 22.3777C21.9891 22.3712 21.992 22.3601 21.9994 22.3526C27.1759 17.3934 27.352 9.17685 22.3928 4.00045ZM20.3064 21.3807C20.1375 21.5293 19.9629 21.6704 19.7866 21.8068C19.6827 21.8867 19.5787 21.9655 19.4719 22.0417C19.3039 22.1633 19.1331 22.2784 18.9595 22.3889C18.8332 22.4696 18.7042 22.5476 18.5742 22.6237C18.4108 22.7166 18.2447 22.8094 18.0767 22.9022C17.9281 22.9783 17.7768 23.0498 17.6246 23.1204C17.4724 23.1909 17.3044 23.2661 17.1401 23.332C16.9757 23.3979 16.8013 23.4601 16.6295 23.5176C16.4726 23.5715 16.3158 23.6272 16.157 23.6745C15.9714 23.7302 15.7774 23.7757 15.5852 23.8221C15.4348 23.8574 15.2863 23.8973 15.1341 23.927C14.9141 23.9697 14.6894 23.9994 14.4639 24.03C14.3358 24.0467 14.2086 24.07 14.0796 24.083C13.7231 24.1173 13.362 24.1377 12.9972 24.1377C12.6324 24.1377 12.2713 24.1173 11.9148 24.083C11.7858 24.07 11.6586 24.0467 11.5305 24.03C11.3049 23.9994 11.0803 23.9697 10.8603 23.927C10.708 23.8973 10.5595 23.8574 10.4092 23.8221C10.217 23.7757 10.0258 23.7293 9.83736 23.6745C9.67865 23.6272 9.52173 23.5715 9.36487 23.5176C9.19316 23.4582 9.02139 23.3979 8.85431 23.332C8.68722 23.2661 8.52943 23.1937 8.36974 23.1204C8.21005 23.047 8.06619 22.9783 7.9177 22.9022C7.74969 22.815 7.58352 22.723 7.42014 22.6237C7.2902 22.5476 7.16113 22.4696 7.03489 22.3889C6.86133 22.2784 6.69049 22.1633 6.52247 22.0417C6.4157 21.9656 6.31176 21.8867 6.20777 21.8068C6.03138 21.6704 5.8569 21.5284 5.68796 21.3807C5.64711 21.3501 5.60996 21.3111 5.57009 21.2758C5.61159 18.1181 7.6402 15.3298 10.632 14.3184C12.1279 15.03 13.8647 15.03 15.3606 14.3184C18.3523 15.3298 20.3809 18.118 20.4224 21.2758C20.3834 21.3111 20.3463 21.3464 20.3064 21.3807ZM9.75931 7.44272C10.7644 5.65523 13.0282 5.02098 14.8157 6.02606C16.6032 7.03114 17.2374 9.29493 16.2323 11.0824C15.8989 11.6755 15.4088 12.1656 14.8157 12.4991C14.8111 12.4991 14.8055 12.4991 14.7999 12.5046C14.5537 12.6416 14.2936 12.7518 14.0239 12.8333C13.9756 12.8472 13.931 12.8657 13.88 12.8778C13.7871 12.902 13.6897 12.9187 13.5941 12.9353C13.414 12.9668 13.2319 12.9851 13.0492 12.9901H12.9433C12.7606 12.9851 12.5785 12.9668 12.3984 12.9353C12.3056 12.9187 12.2072 12.902 12.1126 12.8778C12.0633 12.8657 12.0197 12.8472 11.9687 12.8333C11.699 12.7518 11.4388 12.6417 11.1927 12.5046L11.176 12.4991C9.38848 11.494 8.75423 9.23021 9.75931 7.44272ZM22.0691 19.4351C21.4735 16.6567 19.6439 14.3012 17.0992 13.0366C19.1794 10.7707 19.0287 7.2474 16.7627 5.16723C14.4968 3.08707 10.9735 3.23773 8.89336 5.50369C6.9378 7.63396 6.9378 10.9064 8.89336 13.0366C6.3487 14.3013 4.51911 16.6567 3.92342 19.4351C0.363883 14.4212 1.54285 7.47111 6.55674 3.91157C11.5706 0.352038 18.5208 1.53101 22.0803 6.54489C23.4184 8.42969 24.1366 10.6842 24.1355 12.9957C24.1355 15.3052 23.413 17.5568 22.0691 19.4351Z" fill="#8D8D8D"/>
</svg>
