<svg width="18" height="13" viewBox="0 0 18 13" fill="none" xmlns="http://www.w3.org/2000/svg">
<path d="M16.7127 1.32531C16.2393 0.474147 15.7254 0.317587 14.6793 0.25805C13.6342 0.186385 11.0062 0.156616 8.72945 0.156616C6.44836 0.156616 3.81927 0.186385 2.77527 0.256947C1.73127 0.317587 1.21636 0.473045 0.738545 1.32531C0.250909 2.17537 0 3.63954 0 6.21727C0 6.21948 0 6.22058 0 6.22058C0 6.22279 0 6.22389 0 6.22389V6.22609C0 8.7928 0.250909 10.268 0.738545 11.1092C1.21636 11.9604 1.73018 12.1148 2.77418 12.1864C3.81927 12.2482 6.44836 12.2845 8.72945 12.2845C11.0062 12.2845 13.6342 12.2482 14.6803 12.1875C15.7265 12.1159 16.2403 11.9615 16.7138 11.1103C17.2058 10.2691 17.4545 8.79391 17.4545 6.2272C17.4545 6.2272 17.4545 6.22389 17.4545 6.22168C17.4545 6.22168 17.4545 6.21948 17.4545 6.21838C17.4545 3.63954 17.2058 2.17537 16.7127 1.32531ZM6.54545 9.5282V2.91296L12 6.22058L6.54545 9.5282Z" fill="#B9B9B9"/>
</svg>
